HIERARCHY
ROOT Hips
{
	OFFSET 0.00000 0.00000 0.00000
	CHANNELS 6 Xposition Yposition Zposition Yrotation Zrotation Xrotation 
	JOINT Lumbar
	{
		OFFSET 0 0 0
		CHANNELS 3 Zrotation Xrotation Yrotation
		JOINT Neck
		{
			OFFSET 0.00 0.2701 0.00
			CHANNELS 3 Zrotation Xrotation Yrotation
			End Site
			{
				OFFSET 0.00 0.1379 0.00
			}
		}
		JOINT RightShoulder
		{
			OFFSET 0.0119 0.2289 0.1181
			CHANNELS 3 Zrotation Xrotation Yrotation
			JOINT RightElbow
			{
				OFFSET 0.00 -0.1475 0.00
				CHANNELS 2 Zrotation Yrotation
				JOINT RightWrist
				{
					OFFSET 0.00 -0.1605 0.00
					CHANNELS 2 Zrotation Xrotation
					End Site
					{
						OFFSET 0.0040 -0.1068 0.0006
					}
				}
			}
		}
		JOINT LeftShoulder
		{
			OFFSET 0.0119 0.2289 -0.1181
			CHANNELS 3 Zrotation Xrotation Yrotation
			JOINT LeftElbow
			{
				OFFSET 0.00 -0.1475 0.00
				CHANNELS 2 Zrotation Yrotation
				JOINT LeftWrist
				{
					OFFSET 0.00 -0.1605 0.00
					CHANNELS 2 Zrotation Xrotation
					End Site
					{
						OFFSET 0.0040 -0.1068 -0.0006
					}
				}
			}
		}
	}
	JOINT RightHip
	{
		OFFSET 0.0316 -0.0424 0.0458
		CHANNELS 3 Zrotation Xrotation Yrotation
		JOINT RightKnee
		{
			OFFSET 0.00 -0.2438 0.00
			CHANNELS 1 Zrotation
			JOINT RightAnkle
			{
				OFFSET 0.00 -0.2449 0.00
				CHANNELS 3 Zrotation Xrotation Yrotation
				End Site
				{
					OFFSET 0.1237 -0.0542 0.0051
				}
			}
		}
	}
	JOINT LeftHip
	{
		OFFSET 0.0316 -0.0424 -0.0458
		CHANNELS 3 Zrotation Xrotation Yrotation
		JOINT LeftKnee
		{
			OFFSET 0.00 -0.2438 0.00
			CHANNELS 1 Zrotation
			JOINT LeftAnkle
			{
				OFFSET 0.00 -0.2449 0.00
				CHANNELS 3 Zrotation Xrotation Yrotation
				End Site
				{
					OFFSET 0.1237 -0.0542 -0.0051
				}
			}
		}
	}
}
MOTION
Frames: 25
Frame Time: 0.02
-0.20145 -0.02886 -0.33808 -364.55641 -14.61187 5.20452 41.4998 -0.64748 0.99491 -23.76183 1.74385 -0.83079 -34.52853 -2.97497 -29.77827 111.10455 81.57548 -2.07803 -0.41516 -28.42473 7.04592 32.60471 103.26634 -88.24671 8.19554 1.40685 21.25677 -2.62914 -8.12792 -35.27259 -6.78989 -2.65258 -2.01444 43.37901 -6.91864 13.82987 -18.35537 -9.6748 3.12005 2.40467
-0.19385 -0.02763 -0.33916 -364.25573 -14.37958 5.15823 41.39785 -0.62668 1.03187 -23.03472 1.78482 -0.83079 -31.71152 -3.79166 -32.45138 107.10322 80.95757 -2.64471 -0.35042 -26.02802 7.67713 35.50767 99.24922 -88.35886 7.85126 1.26801 21.62598 -2.95151 -7.5623 -37.42539 -7.16002 -2.54549 -1.96794 42.5054 -7.00801 14.25137 -18.86745 -9.40189 3.04386 2.34824
-0.18648 -0.02673 -0.3405 -363.95978 -13.99672 5.06743 41.14052 -0.56751 0.97214 -22.26894 1.8214 -0.83079 -28.54474 -4.66304 -35.19995 102.23973 80.0315 -3.52178 -0.2665 -23.5535 8.29058 38.50006 94.52518 -88.36179 7.20872 1.09552 22.1671 -3.28277 -6.88391 -40.06367 -7.60903 -2.41451 -1.91044 41.47253 -7.07981 14.53253 -19.378 -9.12786 2.99399 2.30639
-0.17906 -0.02571 -0.34172 -363.66972 -13.66525 5.00302 40.92899 -0.52433 0.95896 -21.52088 1.85214 -0.83079 -25.53297 -5.51876 -37.89475 97.72816 79.24853 -4.25003 -0.18886 -21.13253 8.94498 41.40871 90.05687 -88.41083 6.71111 0.94012 22.63612 -3.62192 -6.25816 -42.49497 -8.03082 -2.29292 -1.85756 40.49373 -7.16248 14.87817 -19.88403 -8.85498 2.93255 2.25821
-0.17142 -0.02457 -0.34295 -363.34727 -13.40055 4.91394 40.81821 -0.4871 0.93646 -20.76863 1.91562 -0.83079 -22.51235 -6.33742 -40.69611 93.34901 78.45799 -5.00618 -0.1114 -18.61595 9.46959 44.5195 85.82597 -88.48657 6.18071 0.77366 23.07986 -3.91127 -5.62197 -44.88588 -8.42143 -2.17431 -1.80467 39.58403 -7.23303 15.23174 -20.41309 -8.57617 2.86859 2.20813
-0.1643 -0.02376 -0.34422 -363.09071 -12.96594 4.86289 40.46561 -0.42755 0.90818 -20.0191 1.91164 -0.83079 -19.44709 -7.24025 -43.28119 88.52021 77.61219 -5.77661 -0.03294 -16.2916 10.24746 47.22417 80.96911 -88.47849 5.64771 0.6238 23.61734 -4.30592 -4.98674 -47.45807 -8.89011 -2.04752 -1.75105 38.49891 -7.32266 15.53072 -20.89202 -8.31139 2.81614 2.16558
-0.15849 -0.02383 -0.3456 -363.04025 -12.06268 4.95552 39.44135 -0.32696 0.90702 -19.26447 1.70219 -0.83079 -16.21944 -8.42735 -45.2859 82.45135 76.63725 -6.55003 0.04416 -14.46527 11.84513 48.7653 74.29491 -88.23657 5.14823 0.52555 24.36567 -4.99307 -4.3295 -50.54871 -9.59961 -1.87287 -1.68227 36.92935 -7.49364 15.719 -21.25045 -8.07673 2.79323 2.14204
-0.15321 -0.02421 -0.347 -363.05092 -11.0008 5.08295 38.18717 -0.20367 0.89965 -18.51844 1.42859 -0.83079 -12.98496 -9.68516 -47.06067 76.00247 75.62554 -7.32104 0.12002 -12.84766 13.67692 49.89377 67.06769 -87.9168 4.66068 0.44614 25.20192 -5.78512 -3.68696 -53.77493 -10.37668 -1.69619 -1.61583 35.19692 -7.68021 15.85393 -21.55543 -7.85817 2.78047 2.12538
-0.14774 -0.02441 -0.34833 -363.01764 -10.03541 5.17636 37.06547 -0.08315 0.88258 -17.78287 1.19743 -0.83079 -9.83636 -10.86919 -48.91463 69.86554 74.66335 -8.06836 0.19472 -11.16928 15.32555 51.22323 60.26548 -87.65048 4.1879 0.36015 26.00367 -6.52659 -3.07172 -56.854 -11.09318 -1.54154 -1.55907 33.56505 -7.844 16.00897 -21.8733 -7.63847 2.76043 2.10448
-0.14206 -0.0248 -0.34991 -363.05446 -8.9611 5.34499 35.8192 0.00834 0.91555 -16.98438 0.91 -0.83079 -6.32266 -12.23324 -50.87875 63.10495 73.55226 -8.93066 0.27777 -9.34022 17.29732 52.50567 52.69868 -87.30693 3.62115 0.26444 26.79466 -7.28071 -2.30853 -60.3277 -11.93769 -1.299 -1.45771 31.81458 -8.07336 16.17967 -22.23873 -7.39281 2.75228 2.08866
-0.13694 -0.02485 -0.35097 -362.9576 -8.07869 5.36587 34.781 0.16336 0.84339 -16.32061 0.72465 -0.83079 -3.57638 -13.23546 -52.5574 57.57116 72.74631 -9.54933 0.34258 -7.88042 18.65225 53.77898 46.61031 -87.10386 3.25491 0.19404 27.61885 -8.03319 -1.85914 -62.9846 -12.53163 -1.23674 -1.44851 30.27568 -8.17014 16.30324 -22.49309 -7.20481 2.72175 2.06385
-0.13325 -0.02385 -0.35061 -362.49483 -7.76015 4.97007 34.36474 0.5034 0.48939 -16.01777 0.83581 -0.83079 -2.91935 -13.24717 -53.50452 55.4648 72.79455 -9.49103 0.35915 -7.34872 18.2445 55.19393 44.67474 -87.33628 3.45635 0.1878 28.579 -8.75564 -2.26332 -63.52663 -12.40753 -1.69474 -1.70535 29.35291 -7.89688 16.34152 -22.44793 -7.17461 2.62435 2.01144
-0.13009 -0.02249 -0.34972 -361.89208 -7.64214 4.42496 34.16846 0.90338 0.02938 -15.85217 1.05181 -0.83079 -3.0422 -12.88795 -54.17109 54.61951 73.1516 -9.18735 0.35704 -7.18865 17.20941 56.60141 44.26023 -87.70843 3.85715 0.20662 29.5561 -9.4723 -2.98199 -63.20716 -12.0303 -2.32979 -2.05239 28.65141 -7.48993 16.32929 -22.29399 -7.20145 2.50443 1.94988
-0.12668 -0.02129 -0.34905 -361.34136 -7.43596 3.9481 33.87781 1.26604 -0.38663 -15.62974 1.22089 -0.83079 -2.83094 -12.68032 -54.96615 53.23745 73.36782 -8.99717 0.36205 -6.88641 16.46174 57.96824 43.1976 -87.99778 4.15745 0.21508 30.48173 -10.19205 -3.5674 -63.16557 -11.77488 -2.8701 -2.35057 27.85408 -7.14419 16.31954 -22.19363 -7.20053 2.39644 1.89315
-0.12335 -0.02009 -0.34847 -360.84135 -7.21062 3.46935 33.55452 1.67289 -0.78685 -15.38392 1.38592 -0.83079 -2.53495 -12.54379 -55.75173 51.69234 73.587 -8.79725 0.37238 -6.48177 15.70828 59.5055 41.93975 -88.36384 4.50106 0.22048 31.59636 -10.9154 -4.12536 -63.6084 -11.49332 -3.47249 -2.68316 27.02922 -6.79644 16.39287 -22.07368 -7.20785 2.28171 1.83381
-0.11996 -0.01882 -0.34758 -360.20209 -7.07617 2.9604 33.35556 2.00058 -1.24307 -15.21963 1.58354 -0.83079 -2.59888 -12.17403 -56.49006 50.78618 73.87086 -8.56116 0.36772 -6.37195 14.82008 60.69288 41.44871 -88.60684 4.80006 0.23717 32.3189 -11.62619 -4.79878 -62.83632 -11.20516 -3.98526 -2.96409 26.31862 -6.42172 16.28367 -21.96971 -7.21143 2.17548 1.77766
-0.11625 -0.01742 -0.34594 -359.20866 -7.13362 2.38897 33.4384 2.10404 -1.84481 -15.24421 1.85984 -0.83079 -3.48345 -11.21724 -57.19591 51.38516 74.28537 -8.26844 0.32178 -7.01951 13.66644 60.90488 42.78114 -88.46071 4.94325 0.28429 31.96457 -12.32188 -5.85721 -58.91889 -10.9607 -4.22862 -3.0925 25.8513 -5.99802 15.66604 -21.93383 -7.1902 2.09877 1.73254
-0.11246 -0.01596 -0.34401 -358.08047 -7.27806 1.79484 33.64137 2.12414 -2.49603 -15.34651 2.16317 -0.83079 -4.70007 -10.04471 -57.85949 52.57684 74.75 -7.9505 0.26216 -7.94369 12.406 60.76949 44.82228 -88.19326 5.0328 0.3399 31.21281 -13.00053 -6.99704 -53.81216 -10.71803 -4.3723 -3.16386 25.49531 -5.55289 14.86886 -21.91849 -7.16327 2.03136 1.69098
-0.10871 -0.01453 -0.3422 -357.01603 -7.39033 1.22143 33.79563 2.17615 -3.11358 -15.41502 2.44479 -0.83079 -5.75326 -8.99237 -58.5244 53.4663 75.17303 -7.6556 0.21182 -8.71754 11.22455 60.80209 46.48903 -87.98647 5.13477 0.38917 30.6359 -13.67542 -8.00201 -49.24488 -10.47413 -4.54684 -3.25291 25.10136 -5.12242 14.16645 -21.89578 -7.13921 1.95908 1.64768
-0.10497 -0.01307 -0.34041 -355.93561 -7.47934 0.59977 33.9327 2.25474 -3.78221 -15.48208 2.76899 -0.83079 -6.88668 -7.83259 -59.25515 54.53658 75.68374 -7.30489 0.1482 -9.60771 9.89456 60.79015 48.42438 -87.74429 5.28931 0.45357 30.08365 -14.40156 -9.41936 -44.63515 -10.22303 -4.78605 -3.37849 24.66264 -4.66718 13.41083 -21.86111 -7.11596 1.88818 1.60431
-0.10117 -0.01168 -0.33852 -354.859 -7.6337 0.07409 34.13112 2.25832 -4.35463 -15.56855 3.01064 -0.83079 -7.92152 -6.85148 -59.84207 55.35668 76.02289 -7.06558 0.10884 -10.3173 8.85454 60.79029 49.95506 -87.56639 5.32516 0.48342 29.38583 -15.01343 -10.00778 -39.86375 -9.99088 -4.86766 -3.41503 24.33954 -4.25937 12.71882 -21.85746 -7.08896 1.81761 1.56239
-0.09725 -0.01053 -0.33646 -353.82113 -7.95732 -0.17041 34.47014 2.06671 -4.64939 -15.69125 3.00795 -0.83079 -8.59973 -6.40737 -60.04608 55.31843 75.84708 -7.15898 0.14322 -10.45149 8.66414 60.89259 50.13477 -87.39973 4.98995 0.45915 28.38076 -15.34406 -8.15705 -34.75856 -9.80952 -4.51095 -3.20381 24.31923 -3.99535 12.29311 -21.93695 -7.05229 1.73977 1.52049
-0.09327 -0.00946 -0.3343 -352.79402 -8.34122 -0.31836 34.86561 1.8037 -4.84447 -15.82958 2.92254 -0.83079 -9.16327 -6.15408 -60.10725 55.00621 75.50059 -7.36315 0.20195 -10.39459 8.76888 61.0205 49.88617 -87.32814 4.54472 0.39386 27.24429 -15.55476 -5.4909 -29.56887 -9.64865 -4.00323 -2.90738 24.40899 -3.77912 11.9303 -22.04711 -7.01188 1.66311 1.48053
-0.0893 -0.00835 -0.33217 -351.76494 -8.68941 -0.51717 35.23371 1.5787 -5.0853 -15.95927 2.8809 -0.83079 -9.77832 -5.82129 -60.23302 54.82737 75.24986 -7.50529 0.24738 -10.42873 8.72574 61.14945 49.86578 -87.35309 4.18834 0.31591 26.16831 -15.8005 -3.28336 -24.53972 -9.48036 -3.58191 -2.65998 24.43935 -3.53656 11.50686 -22.14207 -6.97334 1.58999 1.44181
-0.08537 -0.00728 -0.33007 -350.71596 -9.07427 -0.68898 35.61318 1.32761 -5.32841 -16.09919 2.81425 -0.83079 -10.41075 -5.45026 -60.35952 54.631 74.92488 -7.69533 0.30174 -10.45342 8.73346 61.21944 49.73036 -86.82366 3.67423 0.36108 25.07115 -16.1274 -0.71187 -18.95472 -9.3039 -3.08257 -2.36742 24.51057 -3.31226 11.20768 -22.24272 -6.93388 1.5002 1.39437
